<?xml version="1.0" encoding="utf-8"?>
<!-- Svg Vector Icons : http://www.onlinewebfonts.com/icon -->
<!DOCTYPE svg PUBLIC "-//W3C//DTD SVG 1.1//EN" "http://www.w3.org/Graphics/SVG/1.1/DTD/svg11.dtd">
<svg version="1.1" xmlns="http://www.w3.org/2000/svg" xmlns:xlink="http://www.w3.org/1999/xlink" x="0px" y="0px" viewBox="0 0 1000 1000" enable-background="new 0 0 1000 1000" xml:space="preserve">
<metadata> Svg Vector Icons : http://www.onlinewebfonts.com/icon </metadata>
<g><path d="M720.4,484.6c92.6-19.1,169-102.8,169-224.8C889.4,129,793.8,10,607.2,10H136.6c-24.9,0-45.1,20.2-45.1,45.1v889.8c0,24.9,20.2,45.1,45.1,45.1h486.8c188.1,0,285-117.5,285-265.9C908.5,602.1,826.2,500.7,720.4,484.6z M300.2,193.7h261.5c70.5,0,114.6,42.6,114.6,102.8c0,63.2-44.1,102.9-114.6,102.9H300.2V193.7z M570.5,806.4H300.2V583h270.4c80.8,0,124.9,50,124.9,111.7C695.4,765.2,648.4,806.4,570.5,806.4z"/></g>
</svg>