<?xml version="1.0" encoding="iso-8859-1"?>
<!-- Generator: Adobe Illustrator 19.0.0, SVG Export Plug-In . SVG Version: 6.00 Build 0)  -->
<svg version="1.1" id="Layer_1" xmlns="http://www.w3.org/2000/svg" xmlns:xlink="http://www.w3.org/1999/xlink" x="0px" y="0px"
	 viewBox="0 0 512 512" style="enable-background:new 0 0 512 512;" xml:space="preserve">
<g>
	<g>
		<path d="M356.671,0H155.329c-5.633,0-10.199,4.566-10.199,10.199v192.144c0,35.41,26.244,64.806,60.301,69.764v189.323
			C205.43,489.315,228.115,512,256,512c27.885,0,50.57-22.685,50.57-50.57V272.107c34.057-4.958,60.301-34.355,60.301-69.764V10.199
			C366.87,4.566,362.303,0,356.671,0z M346.472,202.343c0,27.626-22.475,50.102-50.102,50.102c-5.632,0-10.199,4.566-10.199,10.199
			V461.43c0,16.636-13.535,30.171-30.171,30.171s-30.171-13.535-30.171-30.171V262.644c0-5.633-4.566-10.199-10.199-10.199
			c-27.626,0-50.102-22.475-50.102-50.102v-59.299h180.944V202.343z M346.472,122.645H165.528V20.398h19.717v26.518
			c0,5.633,4.566,10.199,10.199,10.199s10.199-4.566,10.199-10.199V20.398h19.972v61.344c0,5.633,4.566,10.199,10.199,10.199
			s10.199-4.566,10.199-10.199V20.398h19.972v61.344c0,5.633,4.567,10.199,10.199,10.199c5.632,0,10.199-4.566,10.199-10.199V20.398
			h19.972v61.344c0,5.633,4.567,10.199,10.199,10.199c5.632,0,10.199-4.566,10.199-10.199V20.398h19.717V122.645z"/>
	</g>
</g>
<g>
	<g>
		<path d="M195.444,66.295c-5.633,0-10.199,4.566-10.199,10.199v5.247c0,5.633,4.566,10.199,10.199,10.199
			s10.199-4.566,10.199-10.199v-5.247C205.643,70.862,201.077,66.295,195.444,66.295z"/>
	</g>
</g>
<g>
	<g>
		<path d="M256,446.725c-5.633,0-10.199,4.566-10.199,10.199v6.12c0,5.633,4.566,10.199,10.199,10.199
			c5.632,0,10.199-4.566,10.199-10.199v-6.12C266.199,451.291,261.632,446.725,256,446.725z"/>
	</g>
</g>
<g>
</g>
<g>
</g>
<g>
</g>
<g>
</g>
<g>
</g>
<g>
</g>
<g>
</g>
<g>
</g>
<g>
</g>
<g>
</g>
<g>
</g>
<g>
</g>
<g>
</g>
<g>
</g>
<g>
</g>
</svg>
