<svg xmlns="http://www.w3.org/2000/svg" shape-rendering="geometricPrecision" text-rendering="geometricPrecision" image-rendering="optimizeQuality" fill-rule="evenodd" clip-rule="evenodd" viewBox="0 0 405 512.47"><path fill-rule="nonzero" d="M13.18 0h191.61v10.19h-9.54c-14.39 0-24.3 1.49-29.72 4.49-5.42 2.98-9.25 7.19-11.49 12.43-2.24 5.32-3.46 18.6-3.46 39.72v181.8c0 33.28 2.52 55.24 7.57 66.09 5.04 10.74 13.27 19.62 24.77 26.82 11.49 7.1 25.98 10.65 43.55 10.65 20.1 0 37.2-4.48 51.31-13.55 14.21-9.07 24.78-21.49 31.79-37.39 7.01-15.89 10.56-43.55 10.56-83V66.83c0-16.64-1.78-28.51-5.23-35.61-3.47-7.11-7.86-12.06-13.09-14.77-8.23-4.2-19.82-6.26-34.87-6.26V0h128.43v10.19h-7.67c-10.37 0-19.06 2.06-25.98 6.26-6.92 4.21-11.96 10.47-15.05 18.88-2.33 5.89-3.55 16.36-3.55 31.5v141.05c0 43.64-2.89 75.14-8.6 94.5-5.79 19.34-19.81 37.1-42.06 53.36-22.24 16.27-52.71 24.4-91.22 24.4-32.07 0-56.92-4.3-74.5-12.9-23.83-11.68-40.75-26.64-50.66-44.86-9.81-18.32-14.76-42.81-14.76-73.75V66.83c0-21.31-1.12-34.58-3.55-39.82-2.34-5.23-6.45-9.35-12.34-12.42-5.8-3.18-16.55-4.59-32.25-4.4V0zM0 486.97h405v25.5H0v-25.5zm0-64.63h405v25.49H0v-25.49z"/></svg>