<?xml version="1.0" encoding="utf-8"?>
<!-- Svg Vector Icons : http://www.onlinewebfonts.com/icon -->
<!DOCTYPE svg PUBLIC "-//W3C//DTD SVG 1.1//EN" "http://www.w3.org/Graphics/SVG/1.1/DTD/svg11.dtd">
<svg version="1.1" xmlns="http://www.w3.org/2000/svg" xmlns:xlink="http://www.w3.org/1999/xlink" x="0px" y="0px" viewBox="0 0 1000 1000" enable-background="new 0 0 1000 1000" xml:space="preserve">
<metadata> Svg Vector Icons : http://www.onlinewebfonts.com/icon </metadata>
<g><g><path d="M527.1,765.2c2.3-7.6,4.5-15.4,6.5-23.3c0.3-1.3,34.6-133.6,71.3-271.8c63.1-237.6,78.4-285.4,81.9-292.7c11.7-24.2,30.7-42.6,58.1-56.1c23.7-11.6,53.8-19.3,89.7-22.9c10.5-1.1,20.5-6.9,27.8-16.4c6.6-8.6,10.4-19.4,10.4-29.8c0-23.4-19-42.4-42.4-42.4H350c-23.4,0-42.4,19-42.4,42.4v1.5c0,20.9,15,38.4,35.6,41.8c27.3,4.4,64.7,10.5,94.1,24.4c15.1,7.1,26.8,15.8,34.6,25.6c8.9,11.1,13.2,24,13.2,39.3c0,28.6-8.4,57.3-16.5,85c-1.7,5.8-3.4,11.9-5.1,17.8c-10.3,37-25.6,93-43.3,158c-40.7,149.5-91.4,335.5-104.1,370.9c-8.6,23.8-40.4,80.3-149.9,88.7c-10.6,0.8-20.6,5.6-27.8,13.4c-7.3,7.9-11.2,18-11.2,28.8v0.1c0,23.4,19,42.4,42.4,42.4h480.5c23.4,0,42.4-19,42.4-42.4v-0.3c0-21.4-16-39.4-37.2-42c-4.1-0.5-8.2-1-12.5-1.5c-42.2-4.8-94.6-10.9-116.7-39.6c-10.2-13.3-13.5-30.8-10.2-53.4C518.2,795.6,522.5,780.8,527.1,765.2z"/></g><g></g><g></g><g></g><g></g><g></g><g></g><g></g><g></g><g></g><g></g><g></g><g></g><g></g><g></g><g></g></g>
</svg>