<?xml version="1.0" encoding="utf-8"?><svg version="1.1" id="Layer_1" xmlns="http://www.w3.org/2000/svg" xmlns:xlink="http://www.w3.org/1999/xlink" x="0px" y="0px" viewBox="0 0 93.15 122.88" style="enable-background:new 0 0 93.15 122.88" xml:space="preserve"><g><path d="M32.16,3.37L33.16,0h60l-1.18,3.37c-5.44,0-9.59,1.21-12.46,3.62c-2.88,2.41-5.38,7.45-7.58,15.13l-22.45,78.65 c-1.64,5.57-2.44,9.28-2.44,11.13c0,2.19,0.83,3.86,2.54,5.1c2.17,1.55,6.28,2.41,12.31,2.54l-0.9,3.34H0l0.99-3.34 c6.13,0,10.58-1.18,13.42-3.5c2.85-2.32,5.42-7.42,7.7-15.28l22.64-78.65c1.39-4.83,2.1-8.48,2.1-10.95c0-2.26-0.87-3.99-2.54-5.26 C42.62,4.64,38.57,3.78,32.16,3.37L32.16,3.37L32.16,3.37z"/></g></svg>