<?xml version="1.0" encoding="utf-8"?><svg version="1.1" id="Layer_1" xmlns="http://www.w3.org/2000/svg" xmlns:xlink="http://www.w3.org/1999/xlink" x="0px" y="0px" viewBox="0 0 122.88 85.36" style="enable-background:new 0 0 122.88 85.36" xml:space="preserve"><g><path d="M6.12,12.23C2.74,12.23,0,9.49,0,6.12C0,2.74,2.74,0,6.12,0h110.65c3.38,0,6.12,2.74,6.12,6.12c0,3.38-2.74,6.12-6.12,6.12 H6.12L6.12,12.23z M26.25,85.36c-3.38,0-6.12-2.74-6.12-6.12c0-3.38,2.74-6.12,6.12-6.12h70.38c3.38,0,6.12,2.74,6.12,6.12 c0,3.38-2.74,6.12-6.12,6.12H26.25L26.25,85.36z M6.12,60.99C2.74,60.99,0,58.25,0,54.87c0-3.38,2.74-6.12,6.12-6.12h110.65 c3.38,0,6.12,2.74,6.12,6.12c0,3.38-2.74,6.12-6.12,6.12H6.12L6.12,60.99z M26.25,36.61c-3.38,0-6.12-2.74-6.12-6.12 c0-3.38,2.74-6.12,6.12-6.12h70.38c3.38,0,6.12,2.74,6.12,6.12c0,3.38-2.74,6.12-6.12,6.12H26.25L26.25,36.61z"/></g></svg>