<?xml version="1.0" encoding="utf-8"?><svg version="1.1" id="Layer_1" xmlns="http://www.w3.org/2000/svg" xmlns:xlink="http://www.w3.org/1999/xlink" x="0px" y="0px" viewBox="0 0 122.88 85.36" style="enable-background:new 0 0 122.88 85.36" xml:space="preserve"><g><path d="M6.12,12.23C2.74,12.23,0,9.49,0,6.12C0,2.74,2.74,0,6.12,0h110.65c3.38,0,6.12,2.74,6.12,6.12c0,3.38-2.74,6.12-6.12,6.12 H6.12L6.12,12.23z M6.12,36.61C2.74,36.61,0,33.87,0,30.49c0-3.38,2.74-6.12,6.12-6.12H76.5c3.38,0,6.12,2.74,6.12,6.12 c0,3.38-2.74,6.12-6.12,6.12H6.12L6.12,36.61z M6.12,60.99C2.74,60.99,0,58.25,0,54.87c0-3.38,2.74-6.12,6.12-6.12h110.65 c3.38,0,6.12,2.74,6.12,6.12c0,3.38-2.74,6.12-6.12,6.12H6.12L6.12,60.99z M6.12,85.36C2.74,85.36,0,82.63,0,79.25 c0-3.38,2.74-6.12,6.12-6.12H76.5c3.38,0,6.12,2.74,6.12,6.12c0,3.38-2.74,6.12-6.12,6.12H6.12L6.12,85.36z"/></g></svg>